TITLE ""
FILE "2Q_t_1087-1100.mp3" MP3
  TRACK 01 AUDIO
    TITLE "2Q_t_1087-1100_01"
    INDEX 01 00:00:00
  TRACK 02 AUDIO
    TITLE "2Q_t_1087-1100_02"
    INDEX 01 00:01:10
  TRACK 03 AUDIO
    TITLE "2Q_t_1087-1100_03"
    INDEX 01 00:01:61
  TRACK 04 AUDIO
    TITLE "2Q_t_1087-1100_04"
    INDEX 01 00:04:08
  TRACK 05 AUDIO
    TITLE "2Q_t_1087-1100_05"
    INDEX 01 00:04:53
  TRACK 06 AUDIO
    TITLE "2Q_t_1087-1100_06"
    INDEX 01 00:06:05
  TRACK 07 AUDIO
    TITLE "2Q_t_1087-1100_07"
    INDEX 01 00:06:52
  TRACK 08 AUDIO
    TITLE "2Q_t_1087-1100_08"
    INDEX 01 00:09:03
  TRACK 09 AUDIO
    TITLE "2Q_t_1087-1100_09"
    INDEX 01 00:09:48
  TRACK 10 AUDIO
    TITLE "2Q_t_1087-1100_10"
    INDEX 01 00:10:66
  TRACK 11 AUDIO
    TITLE "2Q_t_1087-1100_11"
    INDEX 01 00:11:39
  TRACK 12 AUDIO
    TITLE "2Q_t_1087-1100_12"
    INDEX 01 00:12:64
  TRACK 13 AUDIO
    TITLE "2Q_t_1087-1100_13"
    INDEX 01 00:13:34
  TRACK 14 AUDIO
    TITLE "2Q_t_1087-1100_14"
    INDEX 01 00:15:04
  TRACK 15 AUDIO
    TITLE "2Q_t_1087-1100_15"
    INDEX 01 00:15:51
  TRACK 16 AUDIO
    TITLE "2Q_t_1087-1100_16"
    INDEX 01 00:17:30
  TRACK 17 AUDIO
    TITLE "2Q_t_1087-1100_17"
    INDEX 01 00:18:00
  TRACK 18 AUDIO
    TITLE "2Q_t_1087-1100_18"
    INDEX 01 00:19:15
  TRACK 19 AUDIO
    TITLE "2Q_t_1087-1100_19"
    INDEX 01 00:19:63
  TRACK 20 AUDIO
    TITLE "2Q_t_1087-1100_20"
    INDEX 01 00:21:59
  TRACK 21 AUDIO
    TITLE "2Q_t_1087-1100_21"
    INDEX 01 00:22:30
  TRACK 22 AUDIO
    TITLE "2Q_t_1087-1100_22"
    INDEX 01 00:23:64
  TRACK 23 AUDIO
    TITLE "2Q_t_1087-1100_23"
    INDEX 01 00:24:38
  TRACK 24 AUDIO
    TITLE "2Q_t_1087-1100_24"
    INDEX 01 00:27:05
  TRACK 25 AUDIO
    TITLE "2Q_t_1087-1100_25"
    INDEX 01 00:27:50
  TRACK 26 AUDIO
    TITLE "2Q_t_1087-1100_26"
    INDEX 01 00:29:02
  TRACK 27 AUDIO
    TITLE "2Q_t_1087-1100_27"
    INDEX 01 00:29:47
  TRACK 28 AUDIO
    TITLE "2Q_t_1087-1100_28"
    INDEX 01 00:31:15
  TRACK 29 AUDIO
    TITLE "2Q_t_1087-1100_29"
    INDEX 01 00:31:60
  TRACK 30 AUDIO
    TITLE "2Q_t_1087-1100_30"
    INDEX 01 00:33:22
  TRACK 31 AUDIO
    TITLE "2Q_t_1087-1100_31"
    INDEX 01 00:33:63
  TRACK 32 AUDIO
    TITLE "2Q_t_1087-1100_32"
    INDEX 01 00:35:65
  TRACK 33 AUDIO
    TITLE "2Q_t_1087-1100_33"
    INDEX 01 00:36:34
  TRACK 34 AUDIO
    TITLE "2Q_t_1087-1100_34"
    INDEX 01 00:37:64
  TRACK 35 AUDIO
    TITLE "2Q_t_1087-1100_35"
    INDEX 01 00:38:40
  TRACK 36 AUDIO
    TITLE "2Q_t_1087-1100_36"
    INDEX 01 00:41:29
  TRACK 37 AUDIO
    TITLE "2Q_t_1087-1100_37"
    INDEX 01 00:41:74
  TRACK 38 AUDIO
    TITLE "2Q_t_1087-1100_38"
    INDEX 01 00:43:45
  TRACK 39 AUDIO
    TITLE "2Q_t_1087-1100_39"
    INDEX 01 00:44:17
  TRACK 40 AUDIO
    TITLE "2Q_t_1087-1100_40"
    INDEX 01 00:46:65
  TRACK 41 AUDIO
    TITLE "2Q_t_1087-1100_41"
    INDEX 01 00:47:35
  TRACK 42 AUDIO
    TITLE "2Q_t_1087-1100_42"
    INDEX 01 00:48:39
  TRACK 43 AUDIO
    TITLE "2Q_t_1087-1100_43"
    INDEX 01 00:49:19
  TRACK 44 AUDIO
    TITLE "2Q_t_1087-1100_44"
    INDEX 01 00:51:41
  TRACK 45 AUDIO
    TITLE "2Q_t_1087-1100_45"
    INDEX 01 00:52:09
  TRACK 46 AUDIO
    TITLE "2Q_t_1087-1100_46"
    INDEX 01 00:53:50
  TRACK 47 AUDIO
    TITLE "2Q_t_1087-1100_47"
    INDEX 01 00:54:24
  TRACK 48 AUDIO
    TITLE "2Q_t_1087-1100_48"
    INDEX 01 00:55:58
  TRACK 49 AUDIO
    TITLE "2Q_t_1087-1100_49"
    INDEX 01 00:56:28
  TRACK 50 AUDIO
    TITLE "2Q_t_1087-1100_50"
    INDEX 01 00:57:47
  TRACK 51 AUDIO
    TITLE "2Q_t_1087-1100_51"
    INDEX 01 00:58:18
  TRACK 52 AUDIO
    TITLE "2Q_t_1087-1100_52"
    INDEX 01 00:59:35
  TRACK 53 AUDIO
    TITLE "2Q_t_1087-1100_53"
    INDEX 01 01:00:07
  TRACK 54 AUDIO
    TITLE "2Q_t_1087-1100_54"
    INDEX 01 01:04:59
  TRACK 55 AUDIO
    TITLE "2Q_t_1087-1100_55"
    INDEX 01 01:05:29
  TRACK 56 AUDIO
    TITLE "2Q_t_1087-1100_56"
    INDEX 01 01:06:31
  TRACK 57 AUDIO
    TITLE "2Q_t_1087-1100_57"
    INDEX 01 01:07:03
  TRACK 58 AUDIO
    TITLE "2Q_t_1087-1100_58"
    INDEX 01 01:10:64
